# xmcd
#
# Track frame offsets:
#	150
#	20450
#	44762
#	63400
#	83300
#	95250
#	114225
#	133025
#	155525
#	174900
#
# Disc length: 2539 seconds
#
# Revision: 6
# Processed by: cddbd v1.5.2PL0 Copyright (c) Steve Scherf et al.
# Submitted via: EasyCDDAExtractor 10.0.5.1
#
DISCID=7209e90a
DTITLE=王靖雯 - 迷
DYEAR=1994
DGENRE=Pop
TTITLE0=我願意 (管弦樂版)
TTITLE1=執迷不悔
TTITLE2=變幻的世界在轉
TTITLE3=軟弱
TTITLE4=我願意 (弦樂版)
TTITLE5=沈醉
TTITLE6=冷戰
TTITLE7=心太野
TTITLE8=只想為你守著約
TTITLE9=只有我自己
EXTD=Released under her Chinese name Wang Jing Wen. Her first all-Mandarin alb
EXTD=um
EXTT0=
EXTT1=
EXTT2=
EXTT3=
EXTT4=
EXTT5=
EXTT6=
EXTT7=
EXTT8=
EXTT9=
PLAYORDER=
